
<svg version="1.1" id="Layer_1" xmlns="http://www.w3.org/2000/svg" xmlns:xlink="http://www.w3.org/1999/xlink" x="0px" y="0px"
	 viewBox="0 0 160 97.5" style="enable-background:new 0 0 320 97.5;" xml:space="preserve">
<style type="text/css">
	.st0{fill:#FFEE35;}
	.st1{fill:#1C252C;}
	.st2{fill:#0046BE;}
</style>
	<polygon class="st0" points="119.4,64 142.5,64 142.5,82.5 119.4,82.5 113.6,77.1 113.6,69.4 119.4,64 	"/>
	<path class="st1" d="M42.7,37.3c-0.5,0.5-1.2,0.8-2.1,0.8h-4.5v-5.3h4.5c0.8,0,1.5,0.3,2.1,0.8c0.5,0.5,0.8,1.1,0.8,1.9
		C43.5,36.2,43.2,36.8,42.7,37.3 M36.2,22.4h3.5c0.7,0,1.3,0.2,1.7,0.6c0.4,0.4,0.7,0.9,0.7,1.5c0,0.6-0.2,1.1-0.7,1.5
		c-0.4,0.4-1,0.6-1.7,0.6h-3.5V22.4L36.2,22.4z M47.5,29.4l0.4-0.2c0.3-0.1,0.6-0.4,1-0.7c0.4-0.3,0.8-0.7,1.2-1.2
		c0.4-0.4,0.7-1,1-1.7c0.3-0.7,0.4-1.5,0.4-2.3c0-2.1-1-3.9-2.9-5.4c-1.9-1.5-4.5-2.3-7.8-2.3H26.7v29.2h15.1
		c3.9,0,11.9-0.7,11.9-8.4C53.7,30.6,47.6,29.4,47.5,29.4"/>
	<path class="st1" d="M50.2,69.7c-0.5,0.5-1.2,0.8-2.1,0.8h-4.4v-5.3h4.4c0.8,0,1.5,0.3,2.1,0.8c0.5,0.5,0.8,1.1,0.8,1.9
		C51,68.5,50.7,69.2,50.2,69.7 M43.7,54.8h3.5c0.7,0,1.3,0.2,1.7,0.6c0.4,0.4,0.7,0.9,0.7,1.5c0,0.6-0.2,1.1-0.7,1.5
		c-0.4,0.4-1,0.6-1.7,0.6h-3.5V54.8L43.7,54.8z M55,61.7l0.4-0.2c0.3-0.1,0.6-0.4,1-0.7c0.4-0.3,0.8-0.7,1.2-1.2
		c0.4-0.4,0.7-1,1-1.7c0.3-0.7,0.4-1.5,0.4-2.3c0-2.1-1-3.9-2.9-5.4c-1.9-1.5-4.5-2.3-7.8-2.3H34.2v29.2h15.1
		c3.9,0,11.9-0.7,11.9-8.4C61.2,63,55.1,61.8,55,61.7"/>
	<polygon class="st1" points="77.9,37.7 63.8,37.7 63.8,33.1 75.3,33.1 75.3,26.5 63.8,26.5 63.8,22.7 78,22.7 78,15.6 54.3,15.6
		54.3,44.8 77.9,44.8 77.9,37.7 	"/>
	<polygon class="st1" points="102.1,15.6 102.1,22.7 109.8,22.7 109.8,44.8 119.2,44.8 119.2,22.7 127,22.7 127,15.6 102.1,15.6
		"/>
	<path class="st1" d="M91.4,37.3c-0.5,0.4-1.2,0.7-2.2,0.7c-0.9,0-1.9-0.3-2.9-0.8c-1-0.5-1.7-0.9-2-1.2c-0.2-0.2-0.4-0.3-0.5-0.5
		l-5.6,5.3l0.4,0.4c0.3,0.4,0.9,0.8,1.6,1.3c0.7,0.5,1.5,1,2.5,1.5c0.9,0.5,2.1,0.9,3.5,1.3c1.4,0.3,2.8,0.5,4.3,0.5
		c3.7,0,6.6-1,8.8-2.9c2.2-1.9,3.3-4.2,3.3-6.9c0-1.6-0.3-2.9-0.9-4.1c-0.6-1.2-1.4-2.1-2.4-2.7c-0.9-0.6-2-1.1-3.1-1.6
		c-1-0.4-1.9-0.8-2.8-1c-0.1,0-0.2,0-0.3-0.1c-0.9-0.2-1.7-0.5-2.4-0.9c-0.6-0.3-0.9-0.7-0.9-1.2c0-0.5,0.2-1,0.7-1.3
		c0.4-0.4,1.1-0.5,1.9-0.5c1.9,0,3.1,0.9,3.7,1.5l5.6-5.3l-0.1-0.1c-0.2-0.3-0.7-0.7-1.3-1.1c-0.6-0.4-1.3-0.8-2.1-1.2
		c-0.8-0.4-1.8-0.8-3.1-1.1c-1.3-0.3-2.6-0.4-4-0.4c-3.5,0-6.3,0.9-8.5,2.8c-2.1,1.9-3.2,4-3.2,6.5c0,1.3,0.2,2.5,0.7,3.6
		c0.5,1.1,1.1,1.9,1.8,2.5c0.7,0.6,1.6,1.2,2.5,1.7c0.8,0.4,1.5,0.7,2.3,1c0.1,0.1,0.3,0.1,0.4,0.2c0.9,0.3,1.7,0.6,2.5,0.8
		c0.7,0.3,1.3,0.5,1.8,0.8c0.5,0.3,0.7,0.6,0.7,1C92.2,36.3,91.9,36.8,91.4,37.3"/>
	<path class="st1" d="M78,65.3c0,1.9-1.6,3.5-3.5,3.5c-2,0-3.5-1.6-3.5-3.5V48h-9.5v16.9c0,7,5.7,12.6,12.6,12.6h0.6
		c7,0,12.6-5.7,12.6-12.6V48H78V65.3L78,65.3z"/>
	<polygon class="st1" points="103.5,57.9 97.3,48 87.8,48 98.8,66.8 98.8,77.2 108.2,77.2 108.2,66.8 119.2,48 109.7,48 103.5,57.9
			"/>
	<path class="st1" d="M118.2,73.2c0,0.6-0.5,1.1-1.1,1.1c-0.6,0-1.1-0.5-1.1-1.1c0-0.6,0.5-1.1,1.1-1.1
		C117.7,72.1,118.2,72.6,118.2,73.2"/>
	<path class="st1" d="M120.8,56.1h0.4l0.7,1.7l0.7-1.7h0.4v2.2h-0.3v-1.9l-0.8,1.9h-0.1l-0.8-1.9v1.9h-0.2V56.1L120.8,56.1z
		 M119.4,56.4h-0.7v-0.2h1.6v0.2h-0.7v2h-0.3V56.4L119.4,56.4z"/>
</svg>
