<svg xmlns="http://www.w3.org/2000/svg" viewBox="0 0 693 669.86"><title>Artboard 2</title><path d="M309 1.39a335.84 335.84 0 0 0-270.1 197c-3.8 8.4-6.9 16.1-6.9 16.9 0 1.4 1.9 1.6 12.9 1.6h12.9l7.6-15.5c25.8-53.2 62.3-94.9 111.1-126.8 73-47.6 164.9-62.1 249.7-39.2 47.1 12.7 91.7 37.3 128.6 70.7 46 41.8 79.9 100.6 93.6 162.7 4.1 18.3 5.8 32.9 6.3 55.3l.6 22.8H616v-67h20v-16h-20v-39.1l-2.2.7a65.08 65.08 0 0 0-8 3.5l-5.8 2.9v31.9l-10.2.3-10.3.3-.3 7.7-.3 7.8H600v67l-29.2.2-29.3.3v25l57.5.3c31.6.2 62.5 0 68.7-.3l11.1-.7.8-8.6c1.2-12.7.9-49-.5-61.7-8.5-77.1-40.2-145.1-93.2-199.9C530.7 44.29 457 8.79 377.1.89c-13.9-1.4-53.9-1.1-68.1.5z" fill="#a1a1aa" fill-rule="evenodd"/><path d="M326 46.49c-1.9.2-7.8.9-13 1.5-92.8 10.4-177.4 68.9-221.4 153-3.6 6.9-6.6 12.9-6.6 13.3s4.1.5 9.1.4l9-.3 4.1-7.5a272.71 272.71 0 0 1 48.3-64.5c43.7-43.7 97.1-69.9 159-78.1 17.3-2.2 49.5-2.3 66.3 0 62.1 8.3 116.9 35.2 160.3 78.7a261.12 261.12 0 0 1 49.5 68.7c3.8 7.7 7.4 14.1 8 14.1 1 .1 13.1-5.4 14.3-6.5.7-.6-12.6-26-19-36.2-21.4-34.5-51.9-66.09-84.9-88.2-28.9-19.3-56.1-31.4-89.6-40-23.8-6.1-39.1-8.1-66.4-8.5-12.9-.2-25.1-.1-27 .1z" fill="#a1a1aa" fill-rule="evenodd"/><path d="M315.2 229.59c-10.4 3.1-18.1 12.9-20.2 25.4-1.3 8.4-1.3 84.4 0 92.8 1.4 8.1 4.7 14.7 9.9 19.4 6.6 5.9 10.1 7.1 22.6 7.1 9.4.1 11.7-.2 16.1-2.2a29.84 29.84 0 0 0 14.6-14.7c2-4.4 2.3-6.9 2.6-21.3l.4-16.2H340v12c0 17.1-2.6 22-11.5 22a13.42 13.42 0 0 1-6.4-1.6c-4.9-3.5-5.1-5.3-5.1-50.1 0-25.9.4-43.2 1.1-45.6 1.5-5.6 4.3-7.7 10.4-7.7 8.7 0 11.5 4.7 11.5 19.6v9.4h21.2l-.4-13.8c-.3-11.3-.7-14.5-2.5-18.3a30.07 30.07 0 0 0-14.6-15c-6.8-3-20.8-3.6-28.5-1.2zM0 301.39v71.5h23v-61h25v61h23V229.9H48V290.89H23V229.9H0v71.49zM87 301.39v71.5h23V229.9H87v71.49zM126 301.39v71.5h60.1l-.3-10.29-.3-10.21-18.2-.29-18.3-.21V229.9h-23v71.49zM195 301.39v71.5h60.1l-.3-10.29-.3-10.21-18.2-.29-18.3-.21V229.9h-23v71.49zM375 301.39v71.5h23V229.9h-23v71.49zM406.2 240.09l.3 10.31 11.8.29 11.7.31v121.89h23V250.9h23v-21h-70.1l.3 10.19zM479 231c0 .6 2.4 9.3 5.4 19.2s9.3 31.2 14 47.1l8.6 28.8v46.8h23v-48.4l13.6-46c7.5-25.4 13.9-46.7 14.1-47.4.4-.9-2.1-1.2-10.5-1.2-10.5 0-11 .1-11.6 2.2-.3 1.3-4 15.5-8.3 31.7-5.5 20.9-7.9 28.9-8.5 27.5-.8-2-8.4-30.3-13.4-50.2l-2.9-11.2h-11.7c-7.9-.01-11.8.39-11.8 1.1z" fill="#a1a1aa" fill-rule="evenodd"/><path d="M244.1 385.69c-5.2 2.6-7.4 6.3-7.9 13-.6 7.9 1.8 13 10 21.8 7.6 8.1 8.8 10.1 8.8 14.8 0 5.5-3.6 8-8.1 5.6-1.4-.8-1.9-2.1-1.9-5.5v-4.5h-10.3l.5 4.8c1 10.1 5.6 14.7 14.8 14.7 9.5 0 15-5.8 15-16-.1-6.9-2.7-12.1-10.2-20.1a83.53 83.53 0 0 1-7.7-9.1c-1.6-3.1-1.4-8.9.5-10.7 3.4-3.4 8.4-.8 8.4 4.5 0 2.8.1 2.9 5.1 2.9h5.1l-.7-4.3c-1.4-8.6-6.8-13.7-14.5-13.7a17.69 17.69 0 0 0-6.9 1.8zM279.1 385.59c-5.2 2.7-7.4 6.4-7.9 13.1-.6 7.9 1.8 13 10 21.8 7.6 8.1 8.8 10.1 8.8 14.8 0 5.5-3.6 8-8.1 5.6-1.4-.8-1.9-2.1-1.9-5.5v-4.5h-10.3l.6 5.6a25.37 25.37 0 0 0 2.1 8c3.8 5.7 11.7 7.8 19 5 5.5-2.1 8.6-7.6 8.6-15.2-.1-6.8-2.7-12-10.2-20a83.53 83.53 0 0 1-7.7-9.1c-1.6-3.1-1.4-8.9.5-10.7 3.4-3.4 8.4-.8 8.4 4.5 0 2.8.1 2.9 5.1 2.9h5.1l-.7-4.3c-1.5-8.9-5-12.4-13.1-13.3-3.6-.4-5.8 0-8.3 1.3zM514.6 384.89a12.79 12.79 0 0 0-8.2 7.7c-2 4.6-2 45 0 49.7 4.1 9.8 19.7 11.5 26.3 2.9l2.8-3.6.3-22.3c.3-20.4.2-22.7-1.6-26.8-1.1-2.4-3.1-5.2-4.5-6-3-2-11.2-2.9-15.1-1.6zm9.8 10.2c1.3 1.9 1.6 5.8 1.6 22.3 0 21.8-.6 24.5-5.5 24.5-5.2 0-5.5-1.4-5.5-24.2 0-18.3.2-21.4 1.7-23a4.78 4.78 0 0 1 7.7.4zM596.1 385.69a17.51 17.51 0 0 0-5.5 4.5c-2 2.7-2.1 4.4-2.4 26-.2 20.6-.1 23.6 1.5 26.6 3.8 7.4 12.3 10 20.6 6.3 6.9-3 8-6 8.5-22l.4-13.2H604v4.5c0 4.1.2 4.5 2.5 4.5 2.5 0 2.5.1 2.5 7.9 0 8.7-1.2 11.1-5.5 11.1-5.2 0-5.5-1.4-5.5-24.4 0-19.4.2-21.4 1.8-22.9 4.7-4.2 9.2-.7 9.2 7.2V407l4.8-.3 4.7-.3-.2-6.1c-.2-8-2.3-12-7.6-14.5-5.3-2.31-10.2-2.41-14.6-.11zM632.1 385.69a17.51 17.51 0 0 0-5.5 4.5c-2 2.7-2.1 4.4-2.4 26-.2 20.6-.1 23.6 1.5 26.6 2.9 5.6 6.5 7.6 13.7 7.6 7.7 0 11-2 13.8-8.1 1.8-4.1 1.9-6.4 1.6-26.8l-.3-22.3-2.8-3.6c-4.2-5.59-13-7.3-19.6-3.9zm11.3 9.4c1.3 1.9 1.6 5.8 1.6 22.3s-.3 20.4-1.6 22.3c-1.8 2.6-5 2.8-7.6.5-1.6-1.5-1.8-3.5-1.8-22.9 0-18 .2-21.5 1.6-22.8a5.07 5.07 0 0 1 7.8.6z" fill="#a1a1aa" fill-rule="evenodd"/><path d="M14 386.79c0 2.9 2.9 17.6 5.6 28.6a336.44 336.44 0 0 0 290.1 253c16 1.7 52.4 2 67.4.5a337.21 337.21 0 0 0 261.4-171c5.1-9.1 16.5-32.9 16.5-34.4 0-.4-6.1-.6-13.4-.6h-13.5L620.9 477c-31 60.4-81 108.7-143.3 138.4-80.1 38.2-175.7 39.5-257.5 3.4-82.5-36.5-145.6-107.6-171.5-193.3a122.48 122.48 0 0 1-3.6-13.2c0-1.2 10.6-1.4 75.3-1.6l75.2-.3v-25l-90.7-.3c-88.5-.21-90.8-.21-90.8 1.69z" fill="#a1a1aa" fill-rule="evenodd"/><path d="M202.6 416.19c-2.7 17.1-5.1 31.8-5.4 32.4-.3.9.9 1.3 4.2 1.3 5 0 4.7.3 6.1-8.3l.6-3.7h12.7l.8 5.7.9 5.8 5.1.3 5 .3-5.2-32.3c-2.9-17.8-5.3-32.4-5.3-32.6s-3.4-.2-7.3-.2h-7.3zm14.3-4.1c1.2 7.6 2.1 14.4 2.1 15.3 0 1.1-1.2 1.5-4.8 1.5h-4.9l1.8-12.3c2.5-16.4 3-19 3.4-18.6.1.2 1.2 6.6 2.4 14.1zM307 417.39v32.5h28v-9h-18v-19h14v-9h-14v-19h18v-9h-28v32.5zM341 417.39v32.5h9l.1-22.3.1-22.2 3.6 22 3.7 22 4.7.3 4.6.3 1.1-6.8c.6-3.7 2.2-13.8 3.5-22.3l2.4-15.5.1 22.2.1 22.3h10v-65.1l-7.2.3-7.2.3-3.2 21c-1.7 11.6-3.3 21.7-3.6 22.5s-1.9-7.8-3.7-19-3.5-21.5-3.8-22.8c-.5-2-1.1-2.2-7.4-2.2H341zM391 417.29v32.6h9.8c16.7-.1 21.2-3.8 21.2-17.9 0-8-1.8-13.4-5-15.1l-2.2-1.2 2.8-2.9c2.4-2.5 2.9-4 3.2-9.7.5-8-1.3-13.2-5.4-15.9-2.1-1.4-5.3-1.9-13.6-2.2l-10.8-.3zm18.4-21.8c1.1 1 1.6 3.4 1.6 7.1 0 6.8-1.8 9.3-6.7 9.3H401v-18h3.4c1.9 0 4.2.7 5 1.6zm.8 27.1c1.4 1.2 1.8 3.1 1.8 8.4 0 8-1.3 9.9-7.1 9.9H401v-20h3.7c2 0 4.5.7 5.5 1.7zM429 417.39v32.5h27v-9h-17v-56h-10v32.5zM452 387.59c.5 1.6 3.4 11.2 6.5 21.5 5.2 17.7 5.5 19.2 5.5 29.7v11.1h10v-10.5c0-9.9.3-11.7 6-30.9 3.3-11.3 6.3-21.2 6.6-22 .5-1.3-.2-1.6-4.2-1.6h-4.9l-3.4 13.2c-1.9 7.3-3.7 13.9-4.1 14.6-.6 1.2-4-10.3-7.6-25.1-.6-2.5-1-2.7-6-2.7h-5.3zM543 417.39v32.5h10v-27h13v-9h-13v-20h17v-9h-27v32.5zM662 417.39v32.5h9.5c12.4 0 17-1.7 19.6-7.4 1.6-3.6 1.9-6.8 1.9-25.1s-.3-21.5-1.9-25.1c-2.6-5.7-7.2-7.4-19.6-7.4H662zm19.2-21.8c1.6 1.5 1.8 3.5 1.8 21.6 0 22.8-.3 23.7-7.2 23.7H672v-47h3.7c2 0 4.5.7 5.5 1.7z" fill="#a1a1aa" fill-rule="evenodd"/><path d="M72.5 424.09c.4 1.3 3.2 8.6 6.2 16.3 24.8 63.2 70.4 115 130.7 148.4 29.7 16.4 65.9 28.1 103.6 33.3 6 .8 19.2 1.3 36 1.2 30.1 0 43.8-1.6 69.1-8a288.11 288.11 0 0 0 170.3-120.2c8-12 18.6-30.5 18.6-32.4 0-.4-4-.8-8.9-.8h-8.9l-3.6 6.4c-24.2 43.3-64.2 82.6-108.1 106.3A283.4 283.4 0 0 1 377 606c-15.5 1.7-47 1.5-62.5-.5-91-12-167.1-65.4-209.5-147-5.3-10.4-15-33.2-15-35.6 0-.6-3.4-1-9.1-1-8.9-.01-9-.01-8.4 2.19z" fill="#a1a1aa" fill-rule="evenodd"/></svg>
